<mxfile host="app.diagrams.net" agent="Mozilla/5.0 (Windows NT 10.0; Win64; x64) AppleWebKit/537.36 (KHTML, like Gecko) Chrome/130.0.0.0 Safari/537.36" version="24.8.0">
  <diagram id="C5RBs43oDa-KdzZeNtuy" name="Page-1">
    <mxGraphModel dx="1190" dy="1313" grid="1" gridSize="10" guides="1" tooltips="1" connect="1" arrows="1" fold="1" page="1" pageScale="1" pageWidth="827" pageHeight="1169" math="0" shadow="0">
      <root>
        <mxCell id="WIyWlLk6GJQsqaUBKTNV-0" />
        <mxCell id="WIyWlLk6GJQsqaUBKTNV-1" parent="WIyWlLk6GJQsqaUBKTNV-0" />
        <mxCell id="6m1_fVxUKg5ZZL6oir4L-5" style="edgeStyle=none;rounded=0;orthogonalLoop=1;jettySize=auto;html=1;endArrow=classic;endFill=1;" parent="WIyWlLk6GJQsqaUBKTNV-1" source="6m1_fVxUKg5ZZL6oir4L-0" target="6m1_fVxUKg5ZZL6oir4L-1" edge="1">
          <mxGeometry relative="1" as="geometry" />
        </mxCell>
        <mxCell id="6m1_fVxUKg5ZZL6oir4L-6" style="edgeStyle=orthogonalEdgeStyle;rounded=0;orthogonalLoop=1;jettySize=auto;html=1;endArrow=classic;endFill=1;" parent="WIyWlLk6GJQsqaUBKTNV-1" source="6m1_fVxUKg5ZZL6oir4L-0" target="6m1_fVxUKg5ZZL6oir4L-3" edge="1">
          <mxGeometry relative="1" as="geometry" />
        </mxCell>
        <mxCell id="6m1_fVxUKg5ZZL6oir4L-7" style="edgeStyle=orthogonalEdgeStyle;rounded=0;orthogonalLoop=1;jettySize=auto;html=1;entryX=0.5;entryY=0;entryDx=0;entryDy=0;" parent="WIyWlLk6GJQsqaUBKTNV-1" source="6m1_fVxUKg5ZZL6oir4L-0" target="6m1_fVxUKg5ZZL6oir4L-2" edge="1">
          <mxGeometry relative="1" as="geometry" />
        </mxCell>
        <mxCell id="6m1_fVxUKg5ZZL6oir4L-0" value="Emitir relatório de saldo médio" style="ellipse;whiteSpace=wrap;html=1;" parent="WIyWlLk6GJQsqaUBKTNV-1" vertex="1">
          <mxGeometry x="395" y="70" width="158" height="80" as="geometry" />
        </mxCell>
        <mxCell id="6m1_fVxUKg5ZZL6oir4L-1" value="200000-processamento" style="shape=process;whiteSpace=wrap;html=1;backgroundOutline=1;" parent="WIyWlLk6GJQsqaUBKTNV-1" vertex="1">
          <mxGeometry x="414" y="230" width="120" height="60" as="geometry" />
        </mxCell>
        <mxCell id="6m1_fVxUKg5ZZL6oir4L-2" value="100000-inicio" style="shape=process;whiteSpace=wrap;html=1;backgroundOutline=1;" parent="WIyWlLk6GJQsqaUBKTNV-1" vertex="1">
          <mxGeometry x="180" y="230" width="120" height="60" as="geometry" />
        </mxCell>
        <mxCell id="6m1_fVxUKg5ZZL6oir4L-3" value="300000-finalizar" style="shape=process;whiteSpace=wrap;html=1;backgroundOutline=1;" parent="WIyWlLk6GJQsqaUBKTNV-1" vertex="1">
          <mxGeometry x="620" y="230" width="120" height="60" as="geometry" />
        </mxCell>
        <mxCell id="6m1_fVxUKg5ZZL6oir4L-12" style="edgeStyle=none;rounded=0;orthogonalLoop=1;jettySize=auto;html=1;" parent="WIyWlLk6GJQsqaUBKTNV-1" source="6m1_fVxUKg5ZZL6oir4L-8" target="6m1_fVxUKg5ZZL6oir4L-10" edge="1">
          <mxGeometry relative="1" as="geometry" />
        </mxCell>
        <mxCell id="6m1_fVxUKg5ZZL6oir4L-16" style="edgeStyle=orthogonalEdgeStyle;rounded=0;orthogonalLoop=1;jettySize=auto;html=1;entryX=0.5;entryY=0;entryDx=0;entryDy=0;" parent="WIyWlLk6GJQsqaUBKTNV-1" source="6m1_fVxUKg5ZZL6oir4L-8" target="6m1_fVxUKg5ZZL6oir4L-9" edge="1">
          <mxGeometry relative="1" as="geometry" />
        </mxCell>
        <mxCell id="6m1_fVxUKg5ZZL6oir4L-17" style="edgeStyle=orthogonalEdgeStyle;rounded=0;orthogonalLoop=1;jettySize=auto;html=1;entryX=0.5;entryY=0;entryDx=0;entryDy=0;" parent="WIyWlLk6GJQsqaUBKTNV-1" source="6m1_fVxUKg5ZZL6oir4L-8" target="6m1_fVxUKg5ZZL6oir4L-11" edge="1">
          <mxGeometry relative="1" as="geometry" />
        </mxCell>
        <mxCell id="6m1_fVxUKg5ZZL6oir4L-8" value="100000-inicio" style="ellipse;whiteSpace=wrap;html=1;" parent="WIyWlLk6GJQsqaUBKTNV-1" vertex="1">
          <mxGeometry x="359.25" y="584" width="110" height="50" as="geometry" />
        </mxCell>
        <mxCell id="6m1_fVxUKg5ZZL6oir4L-9" value="100100-Abrir-Arquivos" style="shape=process;whiteSpace=wrap;html=1;backgroundOutline=1;" parent="WIyWlLk6GJQsqaUBKTNV-1" vertex="1">
          <mxGeometry x="174.25" y="714" width="120" height="60" as="geometry" />
        </mxCell>
        <mxCell id="6m1_fVxUKg5ZZL6oir4L-10" value="100200-Inicializar-variáveis" style="shape=process;whiteSpace=wrap;html=1;backgroundOutline=1;" parent="WIyWlLk6GJQsqaUBKTNV-1" vertex="1">
          <mxGeometry x="354.25" y="714" width="120" height="60" as="geometry" />
        </mxCell>
        <mxCell id="6m1_fVxUKg5ZZL6oir4L-11" value="100300-Ler-ERESUMO" style="shape=process;whiteSpace=wrap;html=1;backgroundOutline=1;" parent="WIyWlLk6GJQsqaUBKTNV-1" vertex="1">
          <mxGeometry x="538.25" y="714" width="120" height="60" as="geometry" />
        </mxCell>
        <mxCell id="6m1_fVxUKg5ZZL6oir4L-21" style="edgeStyle=none;rounded=0;orthogonalLoop=1;jettySize=auto;html=1;" parent="WIyWlLk6GJQsqaUBKTNV-1" source="6m1_fVxUKg5ZZL6oir4L-18" target="6m1_fVxUKg5ZZL6oir4L-19" edge="1">
          <mxGeometry relative="1" as="geometry" />
        </mxCell>
        <mxCell id="6m1_fVxUKg5ZZL6oir4L-18" value="100100-Abrir-Arquivos" style="ellipse;whiteSpace=wrap;html=1;" parent="WIyWlLk6GJQsqaUBKTNV-1" vertex="1">
          <mxGeometry x="2.25" y="804" width="130" height="50" as="geometry" />
        </mxCell>
        <mxCell id="6m1_fVxUKg5ZZL6oir4L-23" style="edgeStyle=none;rounded=0;orthogonalLoop=1;jettySize=auto;html=1;entryX=0.5;entryY=0;entryDx=0;entryDy=0;" parent="WIyWlLk6GJQsqaUBKTNV-1" source="6m1_fVxUKg5ZZL6oir4L-19" target="6m1_fVxUKg5ZZL6oir4L-20" edge="1">
          <mxGeometry relative="1" as="geometry" />
        </mxCell>
        <mxCell id="6m1_fVxUKg5ZZL6oir4L-19" value="OPEN INPUT Ler_ERESUMO" style="rounded=0;whiteSpace=wrap;html=1;" parent="WIyWlLk6GJQsqaUBKTNV-1" vertex="1">
          <mxGeometry x="7.25" y="889" width="120" height="60" as="geometry" />
        </mxCell>
        <mxCell id="6m1_fVxUKg5ZZL6oir4L-25" style="edgeStyle=none;rounded=0;orthogonalLoop=1;jettySize=auto;html=1;entryX=0;entryY=0.5;entryDx=0;entryDy=0;" parent="WIyWlLk6GJQsqaUBKTNV-1" source="6m1_fVxUKg5ZZL6oir4L-20" target="6m1_fVxUKg5ZZL6oir4L-24" edge="1">
          <mxGeometry relative="1" as="geometry" />
        </mxCell>
        <mxCell id="6m1_fVxUKg5ZZL6oir4L-26" value="NÃO" style="edgeLabel;html=1;align=center;verticalAlign=middle;resizable=0;points=[];" parent="6m1_fVxUKg5ZZL6oir4L-25" vertex="1" connectable="0">
          <mxGeometry x="-0.3001" y="-4" relative="1" as="geometry">
            <mxPoint as="offset" />
          </mxGeometry>
        </mxCell>
        <mxCell id="6m1_fVxUKg5ZZL6oir4L-36" style="edgeStyle=none;rounded=0;orthogonalLoop=1;jettySize=auto;html=1;entryX=0.5;entryY=0;entryDx=0;entryDy=0;" parent="WIyWlLk6GJQsqaUBKTNV-1" source="6m1_fVxUKg5ZZL6oir4L-20" target="6m1_fVxUKg5ZZL6oir4L-32" edge="1">
          <mxGeometry relative="1" as="geometry">
            <mxPoint x="66.25" y="1239" as="targetPoint" />
          </mxGeometry>
        </mxCell>
        <mxCell id="6m1_fVxUKg5ZZL6oir4L-37" value="SIM" style="edgeLabel;html=1;align=center;verticalAlign=middle;resizable=0;points=[];" parent="6m1_fVxUKg5ZZL6oir4L-36" vertex="1" connectable="0">
          <mxGeometry x="-0.068" y="1" relative="1" as="geometry">
            <mxPoint as="offset" />
          </mxGeometry>
        </mxCell>
        <mxCell id="6m1_fVxUKg5ZZL6oir4L-20" value="Se FS-ERESUMO = 0" style="rhombus;whiteSpace=wrap;html=1;" parent="WIyWlLk6GJQsqaUBKTNV-1" vertex="1">
          <mxGeometry x="24.75" y="1009" width="85" height="110" as="geometry" />
        </mxCell>
        <mxCell id="6m1_fVxUKg5ZZL6oir4L-28" style="edgeStyle=none;rounded=0;orthogonalLoop=1;jettySize=auto;html=1;" parent="WIyWlLk6GJQsqaUBKTNV-1" source="6m1_fVxUKg5ZZL6oir4L-24" target="6m1_fVxUKg5ZZL6oir4L-27" edge="1">
          <mxGeometry relative="1" as="geometry" />
        </mxCell>
        <mxCell id="6m1_fVxUKg5ZZL6oir4L-24" value="MOVE &quot;ERRO NA ABERTURA DO ARQUIVO ERESUMO&quot; TO WK-MSG" style="rounded=0;whiteSpace=wrap;html=1;" parent="WIyWlLk6GJQsqaUBKTNV-1" vertex="1">
          <mxGeometry x="162.25" y="1019" width="140" height="90" as="geometry" />
        </mxCell>
        <mxCell id="6m1_fVxUKg5ZZL6oir4L-109" style="edgeStyle=orthogonalEdgeStyle;rounded=0;orthogonalLoop=1;jettySize=auto;html=1;entryX=0.5;entryY=0;entryDx=0;entryDy=0;" parent="WIyWlLk6GJQsqaUBKTNV-1" source="6m1_fVxUKg5ZZL6oir4L-27" target="aC11UJZMaTst1rGFtv-5-0" edge="1">
          <mxGeometry relative="1" as="geometry" />
        </mxCell>
        <mxCell id="6m1_fVxUKg5ZZL6oir4L-27" value="900000-ERRO-PROCESSAMENTO" style="rounded=0;whiteSpace=wrap;html=1;" parent="WIyWlLk6GJQsqaUBKTNV-1" vertex="1">
          <mxGeometry x="172.25" y="1149" width="120" height="60" as="geometry" />
        </mxCell>
        <mxCell id="6m1_fVxUKg5ZZL6oir4L-39" style="edgeStyle=none;rounded=0;orthogonalLoop=1;jettySize=auto;html=1;entryX=0.5;entryY=0;entryDx=0;entryDy=0;" parent="WIyWlLk6GJQsqaUBKTNV-1" source="6m1_fVxUKg5ZZL6oir4L-32" target="6m1_fVxUKg5ZZL6oir4L-38" edge="1">
          <mxGeometry relative="1" as="geometry" />
        </mxCell>
        <mxCell id="6m1_fVxUKg5ZZL6oir4L-32" value="OPEN OUTPUT RSALMED RTOTCONT" style="rounded=0;whiteSpace=wrap;html=1;" parent="WIyWlLk6GJQsqaUBKTNV-1" vertex="1">
          <mxGeometry x="7.25" y="1249" width="118" height="60" as="geometry" />
        </mxCell>
        <mxCell id="6m1_fVxUKg5ZZL6oir4L-38" value="100100-FIM" style="ellipse;whiteSpace=wrap;html=1;" parent="WIyWlLk6GJQsqaUBKTNV-1" vertex="1">
          <mxGeometry x="12.5" y="1338" width="107.5" height="50" as="geometry" />
        </mxCell>
        <mxCell id="6m1_fVxUKg5ZZL6oir4L-40" style="edgeStyle=none;rounded=0;orthogonalLoop=1;jettySize=auto;html=1;" parent="WIyWlLk6GJQsqaUBKTNV-1" source="6m1_fVxUKg5ZZL6oir4L-41" target="6m1_fVxUKg5ZZL6oir4L-43" edge="1">
          <mxGeometry relative="1" as="geometry" />
        </mxCell>
        <mxCell id="6m1_fVxUKg5ZZL6oir4L-41" value="100200-Inicializar-variáveis" style="ellipse;whiteSpace=wrap;html=1;" parent="WIyWlLk6GJQsqaUBKTNV-1" vertex="1">
          <mxGeometry x="383.25" y="794" width="130" height="50" as="geometry" />
        </mxCell>
        <mxCell id="6m1_fVxUKg5ZZL6oir4L-71" style="edgeStyle=none;rounded=0;orthogonalLoop=1;jettySize=auto;html=1;" parent="WIyWlLk6GJQsqaUBKTNV-1" source="6m1_fVxUKg5ZZL6oir4L-43" target="6m1_fVxUKg5ZZL6oir4L-57" edge="1">
          <mxGeometry relative="1" as="geometry" />
        </mxCell>
        <mxCell id="6m1_fVxUKg5ZZL6oir4L-43" value="MOVE CURRENT DATE TO WK-DATA" style="rounded=0;whiteSpace=wrap;html=1;" parent="WIyWlLk6GJQsqaUBKTNV-1" vertex="1">
          <mxGeometry x="386.25" y="879" width="120" height="60" as="geometry" />
        </mxCell>
        <mxCell id="6m1_fVxUKg5ZZL6oir4L-70" style="edgeStyle=none;rounded=0;orthogonalLoop=1;jettySize=auto;html=1;" parent="WIyWlLk6GJQsqaUBKTNV-1" source="6m1_fVxUKg5ZZL6oir4L-57" target="6m1_fVxUKg5ZZL6oir4L-61" edge="1">
          <mxGeometry relative="1" as="geometry" />
        </mxCell>
        <mxCell id="6m1_fVxUKg5ZZL6oir4L-57" value="MOVE WK-DIA-CURR TO WK-DATA-DIA" style="rounded=0;whiteSpace=wrap;html=1;" parent="WIyWlLk6GJQsqaUBKTNV-1" vertex="1">
          <mxGeometry x="388.25" y="964" width="120" height="60" as="geometry" />
        </mxCell>
        <mxCell id="6m1_fVxUKg5ZZL6oir4L-69" style="edgeStyle=none;rounded=0;orthogonalLoop=1;jettySize=auto;html=1;" parent="WIyWlLk6GJQsqaUBKTNV-1" source="6m1_fVxUKg5ZZL6oir4L-61" target="6m1_fVxUKg5ZZL6oir4L-62" edge="1">
          <mxGeometry relative="1" as="geometry" />
        </mxCell>
        <mxCell id="6m1_fVxUKg5ZZL6oir4L-61" value="MOVE WK-MES-CURR TO WK-DATA-MES" style="rounded=0;whiteSpace=wrap;html=1;" parent="WIyWlLk6GJQsqaUBKTNV-1" vertex="1">
          <mxGeometry x="388.25" y="1044" width="120" height="60" as="geometry" />
        </mxCell>
        <mxCell id="6m1_fVxUKg5ZZL6oir4L-73" value="" style="edgeStyle=none;rounded=0;orthogonalLoop=1;jettySize=auto;html=1;" parent="WIyWlLk6GJQsqaUBKTNV-1" source="6m1_fVxUKg5ZZL6oir4L-62" target="6m1_fVxUKg5ZZL6oir4L-72" edge="1">
          <mxGeometry relative="1" as="geometry" />
        </mxCell>
        <mxCell id="6m1_fVxUKg5ZZL6oir4L-62" value="MOVE WK-ANO-CURR TO WK-DATA-ANO" style="rounded=0;whiteSpace=wrap;html=1;" parent="WIyWlLk6GJQsqaUBKTNV-1" vertex="1">
          <mxGeometry x="386.25" y="1134" width="120" height="60" as="geometry" />
        </mxCell>
        <mxCell id="6m1_fVxUKg5ZZL6oir4L-77" style="edgeStyle=none;rounded=0;orthogonalLoop=1;jettySize=auto;html=1;entryX=0.5;entryY=0;entryDx=0;entryDy=0;" parent="WIyWlLk6GJQsqaUBKTNV-1" source="6m1_fVxUKg5ZZL6oir4L-72" target="6m1_fVxUKg5ZZL6oir4L-76" edge="1">
          <mxGeometry relative="1" as="geometry" />
        </mxCell>
        <mxCell id="6m1_fVxUKg5ZZL6oir4L-72" value="MOVE ZERO TO WK-TOT-PRECESSADOS&lt;div&gt;&amp;nbsp;WK-TOT-SELECIONADOS&lt;div&gt;WK-TOT-REJEITADOS&lt;/div&gt;&lt;/div&gt;" style="rounded=0;whiteSpace=wrap;html=1;" parent="WIyWlLk6GJQsqaUBKTNV-1" vertex="1">
          <mxGeometry x="354.25" y="1224" width="184" height="60" as="geometry" />
        </mxCell>
        <mxCell id="6m1_fVxUKg5ZZL6oir4L-76" value="100200-FIM" style="ellipse;whiteSpace=wrap;html=1;" parent="WIyWlLk6GJQsqaUBKTNV-1" vertex="1">
          <mxGeometry x="392.5" y="1328" width="107.5" height="50" as="geometry" />
        </mxCell>
        <mxCell id="6m1_fVxUKg5ZZL6oir4L-82" style="edgeStyle=none;rounded=0;orthogonalLoop=1;jettySize=auto;html=1;entryX=0.5;entryY=0;entryDx=0;entryDy=0;" parent="WIyWlLk6GJQsqaUBKTNV-1" source="6m1_fVxUKg5ZZL6oir4L-78" target="6m1_fVxUKg5ZZL6oir4L-80" edge="1">
          <mxGeometry relative="1" as="geometry" />
        </mxCell>
        <mxCell id="6m1_fVxUKg5ZZL6oir4L-78" value="100300-Ler-ERESUMO" style="ellipse;whiteSpace=wrap;html=1;" parent="WIyWlLk6GJQsqaUBKTNV-1" vertex="1">
          <mxGeometry x="652.25" y="794" width="139" height="60" as="geometry" />
        </mxCell>
        <mxCell id="6m1_fVxUKg5ZZL6oir4L-97" style="edgeStyle=none;rounded=0;orthogonalLoop=1;jettySize=auto;html=1;entryX=0.5;entryY=0;entryDx=0;entryDy=0;" parent="WIyWlLk6GJQsqaUBKTNV-1" source="6m1_fVxUKg5ZZL6oir4L-80" target="6m1_fVxUKg5ZZL6oir4L-93" edge="1">
          <mxGeometry relative="1" as="geometry" />
        </mxCell>
        <mxCell id="6m1_fVxUKg5ZZL6oir4L-80" value="Ler-ERESUMO" style="shape=parallelogram;perimeter=parallelogramPerimeter;whiteSpace=wrap;html=1;fixedSize=1;" parent="WIyWlLk6GJQsqaUBKTNV-1" vertex="1">
          <mxGeometry x="661.75" y="894" width="120" height="60" as="geometry" />
        </mxCell>
        <mxCell id="6m1_fVxUKg5ZZL6oir4L-85" style="edgeStyle=none;rounded=0;orthogonalLoop=1;jettySize=auto;html=1;entryX=0;entryY=0.5;entryDx=0;entryDy=0;" parent="WIyWlLk6GJQsqaUBKTNV-1" source="6m1_fVxUKg5ZZL6oir4L-81" target="6m1_fVxUKg5ZZL6oir4L-84" edge="1">
          <mxGeometry relative="1" as="geometry" />
        </mxCell>
        <mxCell id="6m1_fVxUKg5ZZL6oir4L-86" value="NÃO" style="edgeLabel;html=1;align=center;verticalAlign=middle;resizable=0;points=[];" parent="6m1_fVxUKg5ZZL6oir4L-85" vertex="1" connectable="0">
          <mxGeometry x="0.1011" y="-4" relative="1" as="geometry">
            <mxPoint x="1" as="offset" />
          </mxGeometry>
        </mxCell>
        <mxCell id="6m1_fVxUKg5ZZL6oir4L-92" value="" style="edgeStyle=none;rounded=0;orthogonalLoop=1;jettySize=auto;html=1;entryX=0.5;entryY=0;entryDx=0;entryDy=0;" parent="WIyWlLk6GJQsqaUBKTNV-1" source="6m1_fVxUKg5ZZL6oir4L-81" target="6m1_fVxUKg5ZZL6oir4L-106" edge="1">
          <mxGeometry relative="1" as="geometry">
            <mxPoint x="720" y="1424" as="targetPoint" />
          </mxGeometry>
        </mxCell>
        <mxCell id="6m1_fVxUKg5ZZL6oir4L-81" value="Se FS-ERESUMO = 0 OR NOT EQUAL 10" style="rhombus;whiteSpace=wrap;html=1;" parent="WIyWlLk6GJQsqaUBKTNV-1" vertex="1">
          <mxGeometry x="652.25" y="1209" width="135.5" height="110" as="geometry" />
        </mxCell>
        <mxCell id="6m1_fVxUKg5ZZL6oir4L-90" style="edgeStyle=none;rounded=0;orthogonalLoop=1;jettySize=auto;html=1;entryX=0.5;entryY=0;entryDx=0;entryDy=0;" parent="WIyWlLk6GJQsqaUBKTNV-1" source="6m1_fVxUKg5ZZL6oir4L-84" target="6m1_fVxUKg5ZZL6oir4L-87" edge="1">
          <mxGeometry relative="1" as="geometry" />
        </mxCell>
        <mxCell id="6m1_fVxUKg5ZZL6oir4L-84" value="MOVE &quot;ERRO NA LEITURA DO ERESUMO&quot; TO WK-MSG" style="rounded=0;whiteSpace=wrap;html=1;" parent="WIyWlLk6GJQsqaUBKTNV-1" vertex="1">
          <mxGeometry x="824" y="1229" width="110" height="70" as="geometry" />
        </mxCell>
        <mxCell id="6m1_fVxUKg5ZZL6oir4L-108" style="edgeStyle=orthogonalEdgeStyle;rounded=0;orthogonalLoop=1;jettySize=auto;html=1;entryX=1;entryY=0.5;entryDx=0;entryDy=0;" parent="WIyWlLk6GJQsqaUBKTNV-1" source="6m1_fVxUKg5ZZL6oir4L-87" target="6m1_fVxUKg5ZZL6oir4L-106" edge="1">
          <mxGeometry relative="1" as="geometry" />
        </mxCell>
        <mxCell id="6m1_fVxUKg5ZZL6oir4L-87" value="900000-ERRO-PROCESSAMENTO" style="rounded=0;whiteSpace=wrap;html=1;" parent="WIyWlLk6GJQsqaUBKTNV-1" vertex="1">
          <mxGeometry x="819" y="1319" width="120" height="60" as="geometry" />
        </mxCell>
        <mxCell id="6m1_fVxUKg5ZZL6oir4L-95" value="" style="edgeStyle=none;rounded=0;orthogonalLoop=1;jettySize=auto;html=1;" parent="WIyWlLk6GJQsqaUBKTNV-1" source="6m1_fVxUKg5ZZL6oir4L-93" target="6m1_fVxUKg5ZZL6oir4L-94" edge="1">
          <mxGeometry relative="1" as="geometry" />
        </mxCell>
        <mxCell id="6m1_fVxUKg5ZZL6oir4L-96" value="SIM" style="edgeLabel;html=1;align=center;verticalAlign=middle;resizable=0;points=[];" parent="6m1_fVxUKg5ZZL6oir4L-95" vertex="1" connectable="0">
          <mxGeometry x="-0.2273" y="-2" relative="1" as="geometry">
            <mxPoint as="offset" />
          </mxGeometry>
        </mxCell>
        <mxCell id="6m1_fVxUKg5ZZL6oir4L-100" style="edgeStyle=none;rounded=0;orthogonalLoop=1;jettySize=auto;html=1;entryX=0.5;entryY=0;entryDx=0;entryDy=0;" parent="WIyWlLk6GJQsqaUBKTNV-1" source="6m1_fVxUKg5ZZL6oir4L-93" target="6m1_fVxUKg5ZZL6oir4L-99" edge="1">
          <mxGeometry relative="1" as="geometry" />
        </mxCell>
        <mxCell id="6m1_fVxUKg5ZZL6oir4L-101" value="NÃO" style="edgeLabel;html=1;align=center;verticalAlign=middle;resizable=0;points=[];" parent="6m1_fVxUKg5ZZL6oir4L-100" vertex="1" connectable="0">
          <mxGeometry x="-0.4667" y="1" relative="1" as="geometry">
            <mxPoint as="offset" />
          </mxGeometry>
        </mxCell>
        <mxCell id="6m1_fVxUKg5ZZL6oir4L-93" value="AT END" style="rhombus;whiteSpace=wrap;html=1;" parent="WIyWlLk6GJQsqaUBKTNV-1" vertex="1">
          <mxGeometry x="681.75" y="994" width="80" height="80" as="geometry" />
        </mxCell>
        <mxCell id="6m1_fVxUKg5ZZL6oir4L-103" style="edgeStyle=none;rounded=0;orthogonalLoop=1;jettySize=auto;html=1;entryX=0.5;entryY=0;entryDx=0;entryDy=0;" parent="WIyWlLk6GJQsqaUBKTNV-1" source="6m1_fVxUKg5ZZL6oir4L-94" target="6m1_fVxUKg5ZZL6oir4L-102" edge="1">
          <mxGeometry relative="1" as="geometry" />
        </mxCell>
        <mxCell id="6m1_fVxUKg5ZZL6oir4L-94" value="MOVE &quot;S&quot; TO WK-FIM" style="whiteSpace=wrap;html=1;" parent="WIyWlLk6GJQsqaUBKTNV-1" vertex="1">
          <mxGeometry x="805.75" y="1004" width="140" height="60" as="geometry" />
        </mxCell>
        <mxCell id="6m1_fVxUKg5ZZL6oir4L-104" style="edgeStyle=none;rounded=0;orthogonalLoop=1;jettySize=auto;html=1;" parent="WIyWlLk6GJQsqaUBKTNV-1" source="6m1_fVxUKg5ZZL6oir4L-99" target="6m1_fVxUKg5ZZL6oir4L-102" edge="1">
          <mxGeometry relative="1" as="geometry" />
        </mxCell>
        <mxCell id="6m1_fVxUKg5ZZL6oir4L-99" value="ADD 1 TO WK-TOT-LIDOS" style="whiteSpace=wrap;html=1;" parent="WIyWlLk6GJQsqaUBKTNV-1" vertex="1">
          <mxGeometry x="661.75" y="1119" width="120" height="60" as="geometry" />
        </mxCell>
        <mxCell id="6m1_fVxUKg5ZZL6oir4L-105" style="edgeStyle=none;rounded=0;orthogonalLoop=1;jettySize=auto;html=1;entryX=0.5;entryY=0;entryDx=0;entryDy=0;" parent="WIyWlLk6GJQsqaUBKTNV-1" source="6m1_fVxUKg5ZZL6oir4L-102" target="6m1_fVxUKg5ZZL6oir4L-81" edge="1">
          <mxGeometry relative="1" as="geometry" />
        </mxCell>
        <mxCell id="6m1_fVxUKg5ZZL6oir4L-102" value="" style="ellipse;whiteSpace=wrap;html=1;aspect=fixed;" parent="WIyWlLk6GJQsqaUBKTNV-1" vertex="1">
          <mxGeometry x="854" y="1149" width="50" height="50" as="geometry" />
        </mxCell>
        <mxCell id="6m1_fVxUKg5ZZL6oir4L-106" value="100300-FIM" style="ellipse;whiteSpace=wrap;html=1;" parent="WIyWlLk6GJQsqaUBKTNV-1" vertex="1">
          <mxGeometry x="666.25" y="1388" width="107.5" height="50" as="geometry" />
        </mxCell>
        <mxCell id="6m1_fVxUKg5ZZL6oir4L-122" style="edgeStyle=none;rounded=0;orthogonalLoop=1;jettySize=auto;html=1;" parent="WIyWlLk6GJQsqaUBKTNV-1" source="6m1_fVxUKg5ZZL6oir4L-110" target="6m1_fVxUKg5ZZL6oir4L-111" edge="1">
          <mxGeometry relative="1" as="geometry" />
        </mxCell>
        <mxCell id="6m1_fVxUKg5ZZL6oir4L-110" value="200000-processamento" style="ellipse;whiteSpace=wrap;html=1;" parent="WIyWlLk6GJQsqaUBKTNV-1" vertex="1">
          <mxGeometry x="1285" y="270" width="110" height="50" as="geometry" />
        </mxCell>
        <mxCell id="6m1_fVxUKg5ZZL6oir4L-119" style="edgeStyle=none;rounded=0;orthogonalLoop=1;jettySize=auto;html=1;" parent="WIyWlLk6GJQsqaUBKTNV-1" source="6m1_fVxUKg5ZZL6oir4L-111" target="6m1_fVxUKg5ZZL6oir4L-112" edge="1">
          <mxGeometry relative="1" as="geometry" />
        </mxCell>
        <mxCell id="6m1_fVxUKg5ZZL6oir4L-111" value="200100-Consistência" style="shape=process;whiteSpace=wrap;html=1;backgroundOutline=1;" parent="WIyWlLk6GJQsqaUBKTNV-1" vertex="1">
          <mxGeometry x="1260" y="370" width="160" height="60" as="geometry" />
        </mxCell>
        <mxCell id="6m1_fVxUKg5ZZL6oir4L-114" value="" style="edgeStyle=none;rounded=0;orthogonalLoop=1;jettySize=auto;html=1;entryX=0;entryY=0.5;entryDx=0;entryDy=0;" parent="WIyWlLk6GJQsqaUBKTNV-1" source="6m1_fVxUKg5ZZL6oir4L-112" target="6m1_fVxUKg5ZZL6oir4L-123" edge="1">
          <mxGeometry relative="1" as="geometry">
            <mxPoint x="1440" y="530" as="targetPoint" />
          </mxGeometry>
        </mxCell>
        <mxCell id="6m1_fVxUKg5ZZL6oir4L-121" value="NÃO" style="edgeLabel;html=1;align=center;verticalAlign=middle;resizable=0;points=[];" parent="6m1_fVxUKg5ZZL6oir4L-114" vertex="1" connectable="0">
          <mxGeometry x="-0.6111" y="-2" relative="1" as="geometry">
            <mxPoint x="8" y="-2" as="offset" />
          </mxGeometry>
        </mxCell>
        <mxCell id="6m1_fVxUKg5ZZL6oir4L-118" style="edgeStyle=none;rounded=0;orthogonalLoop=1;jettySize=auto;html=1;entryX=1;entryY=0.5;entryDx=0;entryDy=0;" parent="WIyWlLk6GJQsqaUBKTNV-1" source="6m1_fVxUKg5ZZL6oir4L-112" target="6m1_fVxUKg5ZZL6oir4L-117" edge="1">
          <mxGeometry relative="1" as="geometry" />
        </mxCell>
        <mxCell id="6m1_fVxUKg5ZZL6oir4L-120" value="SIM" style="edgeLabel;html=1;align=center;verticalAlign=middle;resizable=0;points=[];" parent="6m1_fVxUKg5ZZL6oir4L-118" vertex="1" connectable="0">
          <mxGeometry x="0.1299" y="-3" relative="1" as="geometry">
            <mxPoint as="offset" />
          </mxGeometry>
        </mxCell>
        <mxCell id="6m1_fVxUKg5ZZL6oir4L-112" value="Se WK-ERRO = &quot;S&quot;" style="rhombus;whiteSpace=wrap;html=1;" parent="WIyWlLk6GJQsqaUBKTNV-1" vertex="1">
          <mxGeometry x="1300" y="490" width="80" height="80" as="geometry" />
        </mxCell>
        <mxCell id="6m1_fVxUKg5ZZL6oir4L-117" value="200200-Trata-Inconsistência" style="shape=process;whiteSpace=wrap;html=1;backgroundOutline=1;" parent="WIyWlLk6GJQsqaUBKTNV-1" vertex="1">
          <mxGeometry x="1121" y="500" width="120" height="60" as="geometry" />
        </mxCell>
        <mxCell id="6m1_fVxUKg5ZZL6oir4L-126" style="edgeStyle=none;rounded=0;orthogonalLoop=1;jettySize=auto;html=1;entryX=0.5;entryY=0;entryDx=0;entryDy=0;" parent="WIyWlLk6GJQsqaUBKTNV-1" source="6m1_fVxUKg5ZZL6oir4L-123" target="6m1_fVxUKg5ZZL6oir4L-124" edge="1">
          <mxGeometry relative="1" as="geometry" />
        </mxCell>
        <mxCell id="6m1_fVxUKg5ZZL6oir4L-123" value="200300-Calcular_Saldo" style="shape=process;whiteSpace=wrap;html=1;backgroundOutline=1;" parent="WIyWlLk6GJQsqaUBKTNV-1" vertex="1">
          <mxGeometry x="1440" y="505" width="140" height="55" as="geometry" />
        </mxCell>
        <mxCell id="6m1_fVxUKg5ZZL6oir4L-128" style="edgeStyle=orthogonalEdgeStyle;rounded=0;orthogonalLoop=1;jettySize=auto;html=1;entryX=1;entryY=0.5;entryDx=0;entryDy=0;" parent="WIyWlLk6GJQsqaUBKTNV-1" source="6m1_fVxUKg5ZZL6oir4L-124" target="6m1_fVxUKg5ZZL6oir4L-125" edge="1">
          <mxGeometry relative="1" as="geometry">
            <Array as="points">
              <mxPoint x="1480" y="675" />
            </Array>
          </mxGeometry>
        </mxCell>
        <mxCell id="6m1_fVxUKg5ZZL6oir4L-124" value="200400-Imprime-Saldo" style="shape=process;whiteSpace=wrap;html=1;backgroundOutline=1;" parent="WIyWlLk6GJQsqaUBKTNV-1" vertex="1">
          <mxGeometry x="1440" y="595" width="140" height="55" as="geometry" />
        </mxCell>
        <mxCell id="6m1_fVxUKg5ZZL6oir4L-130" style="edgeStyle=none;rounded=0;orthogonalLoop=1;jettySize=auto;html=1;" parent="WIyWlLk6GJQsqaUBKTNV-1" source="6m1_fVxUKg5ZZL6oir4L-125" target="6m1_fVxUKg5ZZL6oir4L-129" edge="1">
          <mxGeometry relative="1" as="geometry" />
        </mxCell>
        <mxCell id="6m1_fVxUKg5ZZL6oir4L-125" value="" style="ellipse;whiteSpace=wrap;html=1;aspect=fixed;" parent="WIyWlLk6GJQsqaUBKTNV-1" vertex="1">
          <mxGeometry x="1315" y="650" width="50" height="50" as="geometry" />
        </mxCell>
        <mxCell id="6m1_fVxUKg5ZZL6oir4L-127" style="edgeStyle=orthogonalEdgeStyle;rounded=0;orthogonalLoop=1;jettySize=auto;html=1;entryX=0;entryY=0.617;entryDx=0;entryDy=0;entryPerimeter=0;" parent="WIyWlLk6GJQsqaUBKTNV-1" source="6m1_fVxUKg5ZZL6oir4L-117" target="6m1_fVxUKg5ZZL6oir4L-125" edge="1">
          <mxGeometry relative="1" as="geometry">
            <Array as="points">
              <mxPoint x="1180" y="681" />
            </Array>
          </mxGeometry>
        </mxCell>
        <mxCell id="6m1_fVxUKg5ZZL6oir4L-133" style="edgeStyle=none;rounded=0;orthogonalLoop=1;jettySize=auto;html=1;" parent="WIyWlLk6GJQsqaUBKTNV-1" source="6m1_fVxUKg5ZZL6oir4L-129" target="6m1_fVxUKg5ZZL6oir4L-131" edge="1">
          <mxGeometry relative="1" as="geometry" />
        </mxCell>
        <mxCell id="6m1_fVxUKg5ZZL6oir4L-129" value="100300-Ler-ERESUMO" style="shape=process;whiteSpace=wrap;html=1;backgroundOutline=1;" parent="WIyWlLk6GJQsqaUBKTNV-1" vertex="1">
          <mxGeometry x="1280" y="744" width="120" height="60" as="geometry" />
        </mxCell>
        <mxCell id="6m1_fVxUKg5ZZL6oir4L-131" value="200000-FIM" style="ellipse;whiteSpace=wrap;html=1;" parent="WIyWlLk6GJQsqaUBKTNV-1" vertex="1">
          <mxGeometry x="1285" y="839" width="107.5" height="50" as="geometry" />
        </mxCell>
        <mxCell id="jvoL_bBkkD1GurERnmae-0" value="LOOP" style="text;html=1;align=center;verticalAlign=middle;whiteSpace=wrap;rounded=0;" parent="WIyWlLk6GJQsqaUBKTNV-1" vertex="1">
          <mxGeometry x="474" y="180" width="60" height="30" as="geometry" />
        </mxCell>
        <mxCell id="jvoL_bBkkD1GurERnmae-11" style="edgeStyle=orthogonalEdgeStyle;rounded=0;orthogonalLoop=1;jettySize=auto;html=1;entryX=0.5;entryY=0;entryDx=0;entryDy=0;" parent="WIyWlLk6GJQsqaUBKTNV-1" source="jvoL_bBkkD1GurERnmae-1" target="jvoL_bBkkD1GurERnmae-10" edge="1">
          <mxGeometry relative="1" as="geometry" />
        </mxCell>
        <mxCell id="jvoL_bBkkD1GurERnmae-1" value="200200-Trata-Inconsistencia" style="ellipse;whiteSpace=wrap;html=1;" parent="WIyWlLk6GJQsqaUBKTNV-1" vertex="1">
          <mxGeometry x="154.5" y="1470" width="170.75" height="80" as="geometry" />
        </mxCell>
        <mxCell id="jvoL_bBkkD1GurERnmae-5" style="edgeStyle=orthogonalEdgeStyle;rounded=0;orthogonalLoop=1;jettySize=auto;html=1;exitX=0;exitY=0.5;exitDx=0;exitDy=0;entryX=0.5;entryY=0;entryDx=0;entryDy=0;" parent="WIyWlLk6GJQsqaUBKTNV-1" source="jvoL_bBkkD1GurERnmae-2" target="jvoL_bBkkD1GurERnmae-21" edge="1">
          <mxGeometry relative="1" as="geometry" />
        </mxCell>
        <mxCell id="jvoL_bBkkD1GurERnmae-6" value="NÃO" style="edgeLabel;html=1;align=center;verticalAlign=middle;resizable=0;points=[];" parent="jvoL_bBkkD1GurERnmae-5" vertex="1" connectable="0">
          <mxGeometry x="-0.1532" relative="1" as="geometry">
            <mxPoint as="offset" />
          </mxGeometry>
        </mxCell>
        <mxCell id="jvoL_bBkkD1GurERnmae-16" style="edgeStyle=orthogonalEdgeStyle;rounded=0;orthogonalLoop=1;jettySize=auto;html=1;entryX=0.5;entryY=0;entryDx=0;entryDy=0;" parent="WIyWlLk6GJQsqaUBKTNV-1" source="jvoL_bBkkD1GurERnmae-2" target="jvoL_bBkkD1GurERnmae-15" edge="1">
          <mxGeometry relative="1" as="geometry" />
        </mxCell>
        <mxCell id="jvoL_bBkkD1GurERnmae-17" value="SIM" style="edgeLabel;html=1;align=center;verticalAlign=middle;resizable=0;points=[];" parent="jvoL_bBkkD1GurERnmae-16" vertex="1" connectable="0">
          <mxGeometry x="0.0246" y="-1" relative="1" as="geometry">
            <mxPoint as="offset" />
          </mxGeometry>
        </mxCell>
        <mxCell id="jvoL_bBkkD1GurERnmae-2" value="IF WK-NUMERIC &amp;gt;= 0" style="rhombus;whiteSpace=wrap;html=1;" parent="WIyWlLk6GJQsqaUBKTNV-1" vertex="1">
          <mxGeometry x="176.5" y="1760" width="126.75" height="100" as="geometry" />
        </mxCell>
        <mxCell id="jvoL_bBkkD1GurERnmae-52" style="rounded=0;orthogonalLoop=1;jettySize=auto;html=1;entryX=0;entryY=0.5;entryDx=0;entryDy=0;" parent="WIyWlLk6GJQsqaUBKTNV-1" source="jvoL_bBkkD1GurERnmae-3" target="jvoL_bBkkD1GurERnmae-45" edge="1">
          <mxGeometry relative="1" as="geometry" />
        </mxCell>
        <mxCell id="jvoL_bBkkD1GurERnmae-3" value="MOVE &quot;S&quot; TO WK-ERRO" style="rounded=0;whiteSpace=wrap;html=1;" parent="WIyWlLk6GJQsqaUBKTNV-1" vertex="1">
          <mxGeometry x="25" y="2110" width="140" height="60" as="geometry" />
        </mxCell>
        <mxCell id="jvoL_bBkkD1GurERnmae-12" style="edgeStyle=orthogonalEdgeStyle;rounded=0;orthogonalLoop=1;jettySize=auto;html=1;entryX=0.5;entryY=0;entryDx=0;entryDy=0;" parent="WIyWlLk6GJQsqaUBKTNV-1" source="jvoL_bBkkD1GurERnmae-10" target="jvoL_bBkkD1GurERnmae-2" edge="1">
          <mxGeometry relative="1" as="geometry" />
        </mxCell>
        <mxCell id="jvoL_bBkkD1GurERnmae-10" value="MOVE SPACES TO WK-ERRO" style="rounded=0;whiteSpace=wrap;html=1;" parent="WIyWlLk6GJQsqaUBKTNV-1" vertex="1">
          <mxGeometry x="169.88" y="1630" width="140" height="60" as="geometry" />
        </mxCell>
        <mxCell id="jvoL_bBkkD1GurERnmae-22" style="rounded=0;orthogonalLoop=1;jettySize=auto;html=1;entryX=1;entryY=0.5;entryDx=0;entryDy=0;exitX=0;exitY=0.5;exitDx=0;exitDy=0;" parent="WIyWlLk6GJQsqaUBKTNV-1" source="jvoL_bBkkD1GurERnmae-15" target="jvoL_bBkkD1GurERnmae-21" edge="1">
          <mxGeometry relative="1" as="geometry" />
        </mxCell>
        <mxCell id="jvoL_bBkkD1GurERnmae-24" value="NÃO" style="edgeLabel;html=1;align=center;verticalAlign=middle;resizable=0;points=[];" parent="jvoL_bBkkD1GurERnmae-22" vertex="1" connectable="0">
          <mxGeometry x="-0.1784" relative="1" as="geometry">
            <mxPoint as="offset" />
          </mxGeometry>
        </mxCell>
        <mxCell id="jvoL_bBkkD1GurERnmae-39" style="edgeStyle=orthogonalEdgeStyle;rounded=0;orthogonalLoop=1;jettySize=auto;html=1;entryX=0.5;entryY=0;entryDx=0;entryDy=0;" parent="WIyWlLk6GJQsqaUBKTNV-1" source="jvoL_bBkkD1GurERnmae-15" target="jvoL_bBkkD1GurERnmae-38" edge="1">
          <mxGeometry relative="1" as="geometry" />
        </mxCell>
        <mxCell id="jvoL_bBkkD1GurERnmae-15" value="IF WK-NOME NOT = SPACES&lt;span style=&quot;white-space: pre;&quot;&gt;&#x9;&lt;/span&gt;" style="rhombus;whiteSpace=wrap;html=1;" parent="WIyWlLk6GJQsqaUBKTNV-1" vertex="1">
          <mxGeometry x="386.5" y="1835" width="126.75" height="100" as="geometry" />
        </mxCell>
        <mxCell id="jvoL_bBkkD1GurERnmae-51" style="edgeStyle=orthogonalEdgeStyle;rounded=0;orthogonalLoop=1;jettySize=auto;html=1;entryX=0.5;entryY=0;entryDx=0;entryDy=0;" parent="WIyWlLk6GJQsqaUBKTNV-1" source="jvoL_bBkkD1GurERnmae-21" target="jvoL_bBkkD1GurERnmae-3" edge="1">
          <mxGeometry relative="1" as="geometry" />
        </mxCell>
        <mxCell id="jvoL_bBkkD1GurERnmae-21" value="" style="ellipse;whiteSpace=wrap;html=1;aspect=fixed;" parent="WIyWlLk6GJQsqaUBKTNV-1" vertex="1">
          <mxGeometry x="70" y="2005" width="50" height="50" as="geometry" />
        </mxCell>
        <mxCell id="jvoL_bBkkD1GurERnmae-49" style="edgeStyle=orthogonalEdgeStyle;rounded=0;orthogonalLoop=1;jettySize=auto;html=1;entryX=1;entryY=0.5;entryDx=0;entryDy=0;" parent="WIyWlLk6GJQsqaUBKTNV-1" source="jvoL_bBkkD1GurERnmae-38" target="jvoL_bBkkD1GurERnmae-45" edge="1">
          <mxGeometry relative="1" as="geometry" />
        </mxCell>
        <mxCell id="jvoL_bBkkD1GurERnmae-38" value="200210-TRATA-VALOR-DIA" style="shape=process;whiteSpace=wrap;html=1;backgroundOutline=1;" parent="WIyWlLk6GJQsqaUBKTNV-1" vertex="1">
          <mxGeometry x="547.5" y="2000" width="110.75" height="60" as="geometry" />
        </mxCell>
        <mxCell id="jvoL_bBkkD1GurERnmae-45" value="FIM" style="ellipse;whiteSpace=wrap;html=1;" parent="WIyWlLk6GJQsqaUBKTNV-1" vertex="1">
          <mxGeometry x="359.25" y="2015" width="110.75" height="30" as="geometry" />
        </mxCell>
        <mxCell id="aC11UJZMaTst1rGFtv-5-0" value="FIM" style="ellipse;whiteSpace=wrap;html=1;" vertex="1" parent="WIyWlLk6GJQsqaUBKTNV-1">
          <mxGeometry x="178.5" y="1284" width="107.5" height="50" as="geometry" />
        </mxCell>
        <mxCell id="aC11UJZMaTst1rGFtv-5-16" style="edgeStyle=orthogonalEdgeStyle;rounded=0;orthogonalLoop=1;jettySize=auto;html=1;entryX=0.5;entryY=0;entryDx=0;entryDy=0;" edge="1" parent="WIyWlLk6GJQsqaUBKTNV-1" source="aC11UJZMaTst1rGFtv-5-17" target="aC11UJZMaTst1rGFtv-5-26">
          <mxGeometry relative="1" as="geometry" />
        </mxCell>
        <mxCell id="aC11UJZMaTst1rGFtv-5-17" value="200100-Trata-Inconsistencia" style="ellipse;whiteSpace=wrap;html=1;" vertex="1" parent="WIyWlLk6GJQsqaUBKTNV-1">
          <mxGeometry x="284.5" y="2238.5" width="170.75" height="80" as="geometry" />
        </mxCell>
        <mxCell id="aC11UJZMaTst1rGFtv-5-18" style="edgeStyle=orthogonalEdgeStyle;rounded=0;orthogonalLoop=1;jettySize=auto;html=1;exitX=0;exitY=0.5;exitDx=0;exitDy=0;entryX=0.5;entryY=0;entryDx=0;entryDy=0;" edge="1" parent="WIyWlLk6GJQsqaUBKTNV-1" source="aC11UJZMaTst1rGFtv-5-22" target="aC11UJZMaTst1rGFtv-5-33">
          <mxGeometry relative="1" as="geometry" />
        </mxCell>
        <mxCell id="aC11UJZMaTst1rGFtv-5-19" value="NÃO" style="edgeLabel;html=1;align=center;verticalAlign=middle;resizable=0;points=[];" vertex="1" connectable="0" parent="aC11UJZMaTst1rGFtv-5-18">
          <mxGeometry x="-0.1532" relative="1" as="geometry">
            <mxPoint as="offset" />
          </mxGeometry>
        </mxCell>
        <mxCell id="aC11UJZMaTst1rGFtv-5-20" style="edgeStyle=orthogonalEdgeStyle;rounded=0;orthogonalLoop=1;jettySize=auto;html=1;entryX=0.5;entryY=0;entryDx=0;entryDy=0;" edge="1" parent="WIyWlLk6GJQsqaUBKTNV-1" source="aC11UJZMaTst1rGFtv-5-22" target="aC11UJZMaTst1rGFtv-5-31">
          <mxGeometry relative="1" as="geometry" />
        </mxCell>
        <mxCell id="aC11UJZMaTst1rGFtv-5-21" value="SIM" style="edgeLabel;html=1;align=center;verticalAlign=middle;resizable=0;points=[];" vertex="1" connectable="0" parent="aC11UJZMaTst1rGFtv-5-20">
          <mxGeometry x="0.0246" y="-1" relative="1" as="geometry">
            <mxPoint as="offset" />
          </mxGeometry>
        </mxCell>
        <mxCell id="aC11UJZMaTst1rGFtv-5-22" value="IF WK-NUMERIC &amp;gt;= 0" style="rhombus;whiteSpace=wrap;html=1;" vertex="1" parent="WIyWlLk6GJQsqaUBKTNV-1">
          <mxGeometry x="306.5" y="2528.5" width="126.75" height="100" as="geometry" />
        </mxCell>
        <mxCell id="aC11UJZMaTst1rGFtv-5-23" style="edgeStyle=orthogonalEdgeStyle;rounded=0;orthogonalLoop=1;jettySize=auto;html=1;" edge="1" parent="WIyWlLk6GJQsqaUBKTNV-1" source="aC11UJZMaTst1rGFtv-5-24">
          <mxGeometry relative="1" as="geometry">
            <mxPoint x="410" y="2808.5" as="targetPoint" />
          </mxGeometry>
        </mxCell>
        <mxCell id="aC11UJZMaTst1rGFtv-5-24" value="MOVE &quot;S&quot; TO WK-ERRO" style="rounded=0;whiteSpace=wrap;html=1;" vertex="1" parent="WIyWlLk6GJQsqaUBKTNV-1">
          <mxGeometry x="162.25" y="2778.5" width="140" height="60" as="geometry" />
        </mxCell>
        <mxCell id="aC11UJZMaTst1rGFtv-5-25" style="edgeStyle=orthogonalEdgeStyle;rounded=0;orthogonalLoop=1;jettySize=auto;html=1;entryX=0.5;entryY=0;entryDx=0;entryDy=0;" edge="1" parent="WIyWlLk6GJQsqaUBKTNV-1" source="aC11UJZMaTst1rGFtv-5-26" target="aC11UJZMaTst1rGFtv-5-22">
          <mxGeometry relative="1" as="geometry" />
        </mxCell>
        <mxCell id="aC11UJZMaTst1rGFtv-5-26" value="MOVE SPACES TO WK-ERRO" style="rounded=0;whiteSpace=wrap;html=1;" vertex="1" parent="WIyWlLk6GJQsqaUBKTNV-1">
          <mxGeometry x="299.88" y="2398.5" width="140" height="60" as="geometry" />
        </mxCell>
        <mxCell id="aC11UJZMaTst1rGFtv-5-27" style="rounded=0;orthogonalLoop=1;jettySize=auto;html=1;entryX=1;entryY=0.5;entryDx=0;entryDy=0;exitX=0;exitY=0.5;exitDx=0;exitDy=0;" edge="1" parent="WIyWlLk6GJQsqaUBKTNV-1" source="aC11UJZMaTst1rGFtv-5-31" target="aC11UJZMaTst1rGFtv-5-33">
          <mxGeometry relative="1" as="geometry" />
        </mxCell>
        <mxCell id="aC11UJZMaTst1rGFtv-5-28" value="NÃO" style="edgeLabel;html=1;align=center;verticalAlign=middle;resizable=0;points=[];" vertex="1" connectable="0" parent="aC11UJZMaTst1rGFtv-5-27">
          <mxGeometry x="-0.1784" relative="1" as="geometry">
            <mxPoint as="offset" />
          </mxGeometry>
        </mxCell>
        <mxCell id="aC11UJZMaTst1rGFtv-5-29" style="edgeStyle=orthogonalEdgeStyle;rounded=0;orthogonalLoop=1;jettySize=auto;html=1;entryX=1;entryY=0.5;entryDx=0;entryDy=0;" edge="1" parent="WIyWlLk6GJQsqaUBKTNV-1" source="aC11UJZMaTst1rGFtv-5-31" target="aC11UJZMaTst1rGFtv-5-43">
          <mxGeometry relative="1" as="geometry">
            <Array as="points">
              <mxPoint x="580" y="2808.5" />
            </Array>
          </mxGeometry>
        </mxCell>
        <mxCell id="aC11UJZMaTst1rGFtv-5-30" value="Text" style="edgeLabel;html=1;align=center;verticalAlign=middle;resizable=0;points=[];" vertex="1" connectable="0" parent="aC11UJZMaTst1rGFtv-5-29">
          <mxGeometry x="-0.5776" relative="1" as="geometry">
            <mxPoint as="offset" />
          </mxGeometry>
        </mxCell>
        <mxCell id="aC11UJZMaTst1rGFtv-5-31" value="IF WK-NOME NOT = SPACES&lt;span style=&quot;white-space: pre;&quot;&gt;&#x9;&lt;/span&gt;" style="rhombus;whiteSpace=wrap;html=1;" vertex="1" parent="WIyWlLk6GJQsqaUBKTNV-1">
          <mxGeometry x="516.5" y="2603.5" width="126.75" height="100" as="geometry" />
        </mxCell>
        <mxCell id="aC11UJZMaTst1rGFtv-5-32" style="edgeStyle=orthogonalEdgeStyle;rounded=0;orthogonalLoop=1;jettySize=auto;html=1;entryX=0.5;entryY=0;entryDx=0;entryDy=0;" edge="1" parent="WIyWlLk6GJQsqaUBKTNV-1" source="aC11UJZMaTst1rGFtv-5-33" target="aC11UJZMaTst1rGFtv-5-24">
          <mxGeometry relative="1" as="geometry" />
        </mxCell>
        <mxCell id="aC11UJZMaTst1rGFtv-5-33" value="" style="ellipse;whiteSpace=wrap;html=1;aspect=fixed;" vertex="1" parent="WIyWlLk6GJQsqaUBKTNV-1">
          <mxGeometry x="207.25" y="2628.5" width="50" height="50" as="geometry" />
        </mxCell>
        <mxCell id="aC11UJZMaTst1rGFtv-5-34" style="edgeStyle=orthogonalEdgeStyle;rounded=0;orthogonalLoop=1;jettySize=auto;html=1;entryX=1;entryY=0.5;entryDx=0;entryDy=0;" edge="1" parent="WIyWlLk6GJQsqaUBKTNV-1" source="aC11UJZMaTst1rGFtv-5-35" target="aC11UJZMaTst1rGFtv-5-41">
          <mxGeometry relative="1" as="geometry">
            <Array as="points">
              <mxPoint x="630" y="3138.5" />
            </Array>
          </mxGeometry>
        </mxCell>
        <mxCell id="aC11UJZMaTst1rGFtv-5-35" value="200210-TRATA-VALOR-DIA" style="shape=process;whiteSpace=wrap;html=1;backgroundOutline=1;" vertex="1" parent="WIyWlLk6GJQsqaUBKTNV-1">
          <mxGeometry x="578.62" y="2943.5" width="110.75" height="60" as="geometry" />
        </mxCell>
        <mxCell id="aC11UJZMaTst1rGFtv-5-36" style="edgeStyle=orthogonalEdgeStyle;rounded=0;orthogonalLoop=1;jettySize=auto;html=1;entryX=0.5;entryY=0;entryDx=0;entryDy=0;" edge="1" parent="WIyWlLk6GJQsqaUBKTNV-1" source="aC11UJZMaTst1rGFtv-5-40" target="aC11UJZMaTst1rGFtv-5-41">
          <mxGeometry relative="1" as="geometry" />
        </mxCell>
        <mxCell id="aC11UJZMaTst1rGFtv-5-37" value="SIM" style="edgeLabel;html=1;align=center;verticalAlign=middle;resizable=0;points=[];" vertex="1" connectable="0" parent="aC11UJZMaTst1rGFtv-5-36">
          <mxGeometry x="-0.149" y="4" relative="1" as="geometry">
            <mxPoint y="-1" as="offset" />
          </mxGeometry>
        </mxCell>
        <mxCell id="aC11UJZMaTst1rGFtv-5-38" style="edgeStyle=orthogonalEdgeStyle;rounded=0;orthogonalLoop=1;jettySize=auto;html=1;entryX=0;entryY=0.5;entryDx=0;entryDy=0;" edge="1" parent="WIyWlLk6GJQsqaUBKTNV-1" source="aC11UJZMaTst1rGFtv-5-40" target="aC11UJZMaTst1rGFtv-5-35">
          <mxGeometry relative="1" as="geometry" />
        </mxCell>
        <mxCell id="aC11UJZMaTst1rGFtv-5-39" value="NÃO" style="edgeLabel;html=1;align=center;verticalAlign=middle;resizable=0;points=[];" vertex="1" connectable="0" parent="aC11UJZMaTst1rGFtv-5-38">
          <mxGeometry x="-0.2713" y="4" relative="1" as="geometry">
            <mxPoint as="offset" />
          </mxGeometry>
        </mxCell>
        <mxCell id="aC11UJZMaTst1rGFtv-5-40" value="IF WK-ERRO = &quot;S&quot;" style="rhombus;whiteSpace=wrap;html=1;" vertex="1" parent="WIyWlLk6GJQsqaUBKTNV-1">
          <mxGeometry x="377.63" y="2923.5" width="126.75" height="100" as="geometry" />
        </mxCell>
        <mxCell id="aC11UJZMaTst1rGFtv-5-41" value="FIM" style="ellipse;whiteSpace=wrap;html=1;" vertex="1" parent="WIyWlLk6GJQsqaUBKTNV-1">
          <mxGeometry x="387.26" y="3113.5" width="107.5" height="50" as="geometry" />
        </mxCell>
        <mxCell id="aC11UJZMaTst1rGFtv-5-42" style="edgeStyle=orthogonalEdgeStyle;rounded=0;orthogonalLoop=1;jettySize=auto;html=1;entryX=0.5;entryY=0;entryDx=0;entryDy=0;" edge="1" parent="WIyWlLk6GJQsqaUBKTNV-1" source="aC11UJZMaTst1rGFtv-5-43" target="aC11UJZMaTst1rGFtv-5-40">
          <mxGeometry relative="1" as="geometry" />
        </mxCell>
        <mxCell id="aC11UJZMaTst1rGFtv-5-43" value="" style="ellipse;whiteSpace=wrap;html=1;aspect=fixed;" vertex="1" parent="WIyWlLk6GJQsqaUBKTNV-1">
          <mxGeometry x="416" y="2783.5" width="50" height="50" as="geometry" />
        </mxCell>
        <mxCell id="aC11UJZMaTst1rGFtv-5-60" style="edgeStyle=orthogonalEdgeStyle;rounded=0;orthogonalLoop=1;jettySize=auto;html=1;" edge="1" parent="WIyWlLk6GJQsqaUBKTNV-1" source="aC11UJZMaTst1rGFtv-5-44" target="aC11UJZMaTst1rGFtv-5-45">
          <mxGeometry relative="1" as="geometry" />
        </mxCell>
        <mxCell id="aC11UJZMaTst1rGFtv-5-44" value="200210-TRATA-VALOR-DIA" style="ellipse;whiteSpace=wrap;html=1;" vertex="1" parent="WIyWlLk6GJQsqaUBKTNV-1">
          <mxGeometry x="2148" y="1530" width="170.75" height="80" as="geometry" />
        </mxCell>
        <mxCell id="aC11UJZMaTst1rGFtv-5-58" style="edgeStyle=orthogonalEdgeStyle;rounded=0;orthogonalLoop=1;jettySize=auto;html=1;entryX=0.5;entryY=0;entryDx=0;entryDy=0;" edge="1" parent="WIyWlLk6GJQsqaUBKTNV-1" source="aC11UJZMaTst1rGFtv-5-45" target="aC11UJZMaTst1rGFtv-5-55">
          <mxGeometry relative="1" as="geometry" />
        </mxCell>
        <mxCell id="aC11UJZMaTst1rGFtv-5-59" value="SIM" style="edgeLabel;html=1;align=center;verticalAlign=middle;resizable=0;points=[];" vertex="1" connectable="0" parent="aC11UJZMaTst1rGFtv-5-58">
          <mxGeometry x="-0.3216" y="3" relative="1" as="geometry">
            <mxPoint as="offset" />
          </mxGeometry>
        </mxCell>
        <mxCell id="aC11UJZMaTst1rGFtv-5-61" style="edgeStyle=orthogonalEdgeStyle;rounded=0;orthogonalLoop=1;jettySize=auto;html=1;" edge="1" parent="WIyWlLk6GJQsqaUBKTNV-1" source="aC11UJZMaTst1rGFtv-5-45" target="aC11UJZMaTst1rGFtv-5-46">
          <mxGeometry relative="1" as="geometry" />
        </mxCell>
        <mxCell id="aC11UJZMaTst1rGFtv-5-62" value="NÃO" style="edgeLabel;html=1;align=center;verticalAlign=middle;resizable=0;points=[];" vertex="1" connectable="0" parent="aC11UJZMaTst1rGFtv-5-61">
          <mxGeometry x="-0.5703" relative="1" as="geometry">
            <mxPoint x="1" as="offset" />
          </mxGeometry>
        </mxCell>
        <mxCell id="aC11UJZMaTst1rGFtv-5-45" value="IF WK-VALOR IS NUMERIC&amp;nbsp;" style="rhombus;whiteSpace=wrap;html=1;" vertex="1" parent="WIyWlLk6GJQsqaUBKTNV-1">
          <mxGeometry x="2170" y="1710" width="126.75" height="100" as="geometry" />
        </mxCell>
        <mxCell id="aC11UJZMaTst1rGFtv-5-50" style="edgeStyle=orthogonalEdgeStyle;rounded=0;orthogonalLoop=1;jettySize=auto;html=1;entryX=0.5;entryY=0;entryDx=0;entryDy=0;" edge="1" parent="WIyWlLk6GJQsqaUBKTNV-1" source="aC11UJZMaTst1rGFtv-5-46" target="aC11UJZMaTst1rGFtv-5-49">
          <mxGeometry relative="1" as="geometry" />
        </mxCell>
        <mxCell id="aC11UJZMaTst1rGFtv-5-51" value="NÃO" style="edgeLabel;html=1;align=center;verticalAlign=middle;resizable=0;points=[];" vertex="1" connectable="0" parent="aC11UJZMaTst1rGFtv-5-50">
          <mxGeometry x="-0.3642" relative="1" as="geometry">
            <mxPoint as="offset" />
          </mxGeometry>
        </mxCell>
        <mxCell id="aC11UJZMaTst1rGFtv-5-53" style="edgeStyle=orthogonalEdgeStyle;rounded=0;orthogonalLoop=1;jettySize=auto;html=1;entryX=0.5;entryY=0;entryDx=0;entryDy=0;" edge="1" parent="WIyWlLk6GJQsqaUBKTNV-1" source="aC11UJZMaTst1rGFtv-5-46" target="aC11UJZMaTst1rGFtv-5-52">
          <mxGeometry relative="1" as="geometry" />
        </mxCell>
        <mxCell id="aC11UJZMaTst1rGFtv-5-54" value="SIM" style="edgeLabel;html=1;align=center;verticalAlign=middle;resizable=0;points=[];" vertex="1" connectable="0" parent="aC11UJZMaTst1rGFtv-5-53">
          <mxGeometry x="-0.3787" relative="1" as="geometry">
            <mxPoint as="offset" />
          </mxGeometry>
        </mxCell>
        <mxCell id="aC11UJZMaTst1rGFtv-5-46" value="IF WK-VALOR-A = SPACES" style="rhombus;whiteSpace=wrap;html=1;" vertex="1" parent="WIyWlLk6GJQsqaUBKTNV-1">
          <mxGeometry x="1900" y="1885" width="126.75" height="100" as="geometry" />
        </mxCell>
        <mxCell id="aC11UJZMaTst1rGFtv-5-56" style="edgeStyle=orthogonalEdgeStyle;rounded=0;orthogonalLoop=1;jettySize=auto;html=1;entryX=0;entryY=0.5;entryDx=0;entryDy=0;" edge="1" parent="WIyWlLk6GJQsqaUBKTNV-1" source="aC11UJZMaTst1rGFtv-5-49" target="aC11UJZMaTst1rGFtv-5-55">
          <mxGeometry relative="1" as="geometry">
            <Array as="points">
              <mxPoint x="1963" y="2210" />
            </Array>
          </mxGeometry>
        </mxCell>
        <mxCell id="aC11UJZMaTst1rGFtv-5-49" value="MOVE &quot;S&quot; TO WK-ERRO" style="rounded=0;whiteSpace=wrap;html=1;" vertex="1" parent="WIyWlLk6GJQsqaUBKTNV-1">
          <mxGeometry x="1893.38" y="2078.5" width="140" height="60" as="geometry" />
        </mxCell>
        <mxCell id="aC11UJZMaTst1rGFtv-5-57" style="edgeStyle=orthogonalEdgeStyle;rounded=0;orthogonalLoop=1;jettySize=auto;html=1;" edge="1" parent="WIyWlLk6GJQsqaUBKTNV-1" source="aC11UJZMaTst1rGFtv-5-52" target="aC11UJZMaTst1rGFtv-5-55">
          <mxGeometry relative="1" as="geometry" />
        </mxCell>
        <mxCell id="aC11UJZMaTst1rGFtv-5-52" value="MOVE ZEROS TO WK-VALOR" style="rounded=0;whiteSpace=wrap;html=1;" vertex="1" parent="WIyWlLk6GJQsqaUBKTNV-1">
          <mxGeometry x="2110" y="2090" width="140" height="60" as="geometry" />
        </mxCell>
        <mxCell id="aC11UJZMaTst1rGFtv-5-65" style="edgeStyle=orthogonalEdgeStyle;rounded=0;orthogonalLoop=1;jettySize=auto;html=1;" edge="1" parent="WIyWlLk6GJQsqaUBKTNV-1" source="aC11UJZMaTst1rGFtv-5-55" target="aC11UJZMaTst1rGFtv-5-63">
          <mxGeometry relative="1" as="geometry" />
        </mxCell>
        <mxCell id="aC11UJZMaTst1rGFtv-5-55" value="" style="ellipse;whiteSpace=wrap;html=1;aspect=fixed;" vertex="1" parent="WIyWlLk6GJQsqaUBKTNV-1">
          <mxGeometry x="2330" y="2170" width="80" height="80" as="geometry" />
        </mxCell>
        <mxCell id="aC11UJZMaTst1rGFtv-5-66" style="edgeStyle=orthogonalEdgeStyle;rounded=0;orthogonalLoop=1;jettySize=auto;html=1;" edge="1" parent="WIyWlLk6GJQsqaUBKTNV-1" source="aC11UJZMaTst1rGFtv-5-63" target="aC11UJZMaTst1rGFtv-5-64">
          <mxGeometry relative="1" as="geometry" />
        </mxCell>
        <mxCell id="aC11UJZMaTst1rGFtv-5-67" value="NÃO" style="edgeLabel;html=1;align=center;verticalAlign=middle;resizable=0;points=[];" vertex="1" connectable="0" parent="aC11UJZMaTst1rGFtv-5-66">
          <mxGeometry x="-0.387" y="1" relative="1" as="geometry">
            <mxPoint as="offset" />
          </mxGeometry>
        </mxCell>
        <mxCell id="aC11UJZMaTst1rGFtv-5-63" value="IF WK=ERRO = &quot;S&quot;" style="rhombus;whiteSpace=wrap;html=1;" vertex="1" parent="WIyWlLk6GJQsqaUBKTNV-1">
          <mxGeometry x="2306.62" y="2320" width="126.75" height="100" as="geometry" />
        </mxCell>
        <mxCell id="aC11UJZMaTst1rGFtv-5-64" value="200200-TRATA-DIA" style="shape=process;whiteSpace=wrap;html=1;backgroundOutline=1;" vertex="1" parent="WIyWlLk6GJQsqaUBKTNV-1">
          <mxGeometry x="2310" y="2490" width="120" height="60" as="geometry" />
        </mxCell>
      </root>
    </mxGraphModel>
  </diagram>
</mxfile>
